<?xml version="1.0" encoding="UTF-8" standalone="no"?>
<svg
   xmlns:dc="http://purl.org/dc/elements/1.1/"
   xmlns:cc="http://creativecommons.org/ns#"
   xmlns:rdf="http://www.w3.org/1999/02/22-rdf-syntax-ns#"
   xmlns:svg="http://www.w3.org/2000/svg"
   xmlns="http://www.w3.org/2000/svg"
   xmlns:sodipodi="http://sodipodi.sourceforge.net/DTD/sodipodi-0.dtd"
   xmlns:inkscape="http://www.inkscape.org/namespaces/inkscape"
   width="210mm"
   height="297mm"
   viewBox="0 0 210 297"
   version="1.1"
   id="svg1089"
   inkscape:version="1.0.2-2 (e86c870879, 2021-01-15)"
   sodipodi:docname="CC.svg">
  <defs
     id="defs1083" />
  <sodipodi:namedview
     id="base"
     pagecolor="#ffffff"
     bordercolor="#666666"
     borderopacity="1.0"
     inkscape:pageopacity="0.0"
     inkscape:pageshadow="2"
     inkscape:zoom="0.7"
     inkscape:cx="175.85569"
     inkscape:cy="482.82204"
     inkscape:document-units="mm"
     inkscape:current-layer="layer1"
     inkscape:document-rotation="0"
     showgrid="false"
     inkscape:window-width="1431"
     inkscape:window-height="1019"
     inkscape:window-x="128"
     inkscape:window-y="0"
     inkscape:window-maximized="0" />
  <metadata
     id="metadata1086">
    <rdf:RDF>
      <cc:Work
         rdf:about="">
        <dc:format>image/svg+xml</dc:format>
        <dc:type
           rdf:resource="http://purl.org/dc/dcmitype/StillImage" />
        <dc:title></dc:title>
      </cc:Work>
    </rdf:RDF>
  </metadata>
  <g
     inkscape:label="Layer 1"
     inkscape:groupmode="layer"
     id="layer1">
    <path
       id="path1481-8"
       style="fill:#a7a9ae;fill-opacity:1;stroke:none;stroke-width:9.11675;stroke-linejoin:round;stroke-miterlimit:4;stroke-dasharray:none;stroke-opacity:1"
       d="m 136.23561,-34.35214 a 179.83833,172.63409 0 0 0 -39.862454,5.577984 c 5.759514,0.549173 11.539984,1.690393 17.276854,3.463749 7.13431,-4.025729 14.72572,-7.075525 22.5856,-9.041733 z m 65.15493,9.566696 c 7.04365,4.150595 13.43702,9.220352 19.09337,15.025588 6.20401,0.6792408 12.42681,2.0498526 18.58837,4.1573736 l 0.95924,-0.988839 A 179.83833,172.63409 0 0 0 201.39054,-24.785444 Z m -43.91113,2.240177 c -9.06872,-0.04966 -17.99318,1.595187 -26.4252,4.739699 10.99432,6.211395 20.45322,14.6413566 28.0654,24.6056886 12.00731,-8.5782402 25.71658,-14.1883164 40.05623,-16.2179982 -5.49391,-3.7450454 -11.51064,-6.8071424 -17.98726,-9.0476514 -7.85867,-2.718628 -15.83804,-4.036612 -23.70917,-4.079738 z m -68.934234,7.787904 C 60.810457,-14.908769 34.420095,0.7747178 19.370369,26.811988 c 17.076784,-7.825 35.543887,-10.097507 53.127409,-7.147273 6.253407,-13.3452664 14.973176,-24.7633648 25.3249,-33.776789 -3.099935,-0.414974 -6.196963,-0.628404 -9.277502,-0.645289 z m 26.513364,5.112536 C 103.22847,-1.8136804 93.142581,9.3257744 86.104601,23.057697 98.146408,27.080026 109.44125,33.692029 119.17728,42.772788 a 102.24054,101.24225 0 0 1 10.13386,-2.012602 c 5.1899,-9.561906 11.6926,-18.007987 19.15918,-25.138433 -8.61734,-11.1547186 -19.96056,-20.0122252 -33.41178,-25.26658 z m 96.40957,13.7823606 c -15.95212,-0.087102 -31.45903,5.0653674 -44.61999,14.4120724 4.62458,8.224954 8.15375,17.162622 10.45955,26.526946 a 102.24054,101.24225 0 0 1 9.13549,3.576917 l 34.6232,-35.693363 c -2.02203,-3.064214 -4.23317,-5.987369 -6.62388,-8.7455792 -0.99299,-0.046026 -1.98448,-0.071586 -2.97437,-0.077004 z M 156.19119,27.559227 c -3.66727,3.664971 -7.04794,7.716053 -10.0849,12.118907 a 102.24054,101.24225 0 0 1 15.98281,1.525039 c -1.5978,-4.734596 -3.57159,-9.300899 -5.89791,-13.643946 z M 2.9345566,28.825518 A 179.83833,172.63409 0 0 0 -13.122936,50.982483 C -9.5231246,46.934571 -5.5718042,43.142844 -1.2747758,39.66224 -0.0489092,35.927191 1.360003,32.312912 2.9345566,28.825518 Z m 54.7131614,3.93759 C 41.374626,32.761308 24.815929,37.908937 10.257221,48.578965 5.2423708,66.554355 5.740996,84.845714 10.721216,101.27808 25.293663,87.6047 43.447367,78.893546 62.640283,76.596638 c -1.318716,-13.898093 -0.0049,-28.345196 4.318904,-42.512989 0.07403,-0.242649 0.15057,-0.483766 0.226179,-0.72543 -3.156554,-0.394587 -6.341717,-0.594839 -9.537662,-0.595113 z m 22.925328,3.50179 c -0.250425,0.753284 -0.493161,1.511855 -0.726601,2.276631 -2.778397,9.104062 -4.124905,18.312894 -4.17751,27.342454 A 102.24054,101.24225 0 0 1 103.59357,48.043069 C 96.529,42.769416 88.744328,38.823157 80.573046,36.264898 Z M -6.3723254,64.534771 C -26.619107,89.87117 -31.764821,125.01478 -19.485459,154.74439 c 0.587871,-2.58006 1.271403,-5.1561 2.054938,-7.72275 3.946493,-12.9321 10.0500318,-24.48312 17.7310836,-34.32296 C -5.3980646,97.76201 -7.8255536,81.259214 -6.3723254,64.534771 Z M 54.413815,92.703632 c -14.256463,3.642552 -27.470939,11.472678 -38.104121,22.649508 6.092867,12.21885 14.908146,22.8026 25.900911,30.61294 A 102.24054,101.24225 0 0 1 42.082679,140.90527 102.24054,101.24225 0 0 1 54.41382,92.703632 Z M 7.0162726,126.9739 c -4.870899,7.28147 -8.8102026,15.49705 -11.559537,24.50625 -2.2620078,7.41236 -3.574503,14.89404 -4.0134492,22.29226 8.703261,11.40482 19.7657716,19.76967 31.9631796,24.89341 0.79481,-5.26104 1.97892,-10.52558 3.573952,-15.75195 2.550318,-8.35677 6.001477,-16.137 10.196928,-23.25144 C 24.683998,151.37434 14.454053,140.08969 7.0162726,126.9739 Z M -37.73561,140.81956 A 179.83833,172.63409 0 0 0 -6.250811,235.7991 C -16.649217,219.13632 -22.37081,199.16328 -22.2373,178.47966 -30.109203,166.8918 -35.226275,154.05309 -37.73561,140.81956 Z m 84.397667,30.04619 c -2.718322,5.14271 -5.007627,10.65703 -6.793156,16.50759 -1.567599,5.13648 -2.678661,10.30586 -3.360021,15.45827 9.034825,1.99987 18.419949,2.35903 27.728464,1.0091 A 102.24054,101.24225 0 0 1 46.662057,170.86575 Z M -7.30184,195.66968 c 4.1275134,23.41008 17.0400402,44.21385 36.104265,56.85525 -4.498987,-12.2386 -6.814579,-25.49308 -6.618391,-39.03584 C 11.522222,209.57981 1.5003652,203.61232 -7.30184,195.66968 Z m 83.170028,20.43522 c -13.303438,3.42522 -27.010928,3.77035 -40.157516,1.17401 0.34099,16.00992 4.746272,31.36549 12.457535,44.46479 17.948463,5.60182 36.410591,3.99811 52.686063,-3.33313 -3.124364,-9.13437 -5.043159,-18.79929 -5.628259,-28.70037 A 102.24054,101.24225 0 0 1 75.868188,216.1049 Z M 194.3311,229.21016 a 102.24054,101.24225 0 0 1 -26.16322,10.14527 c 5.50052,5.28075 11.74977,9.776 18.65357,13.27266 1.90182,-4.03731 3.54681,-8.28357 4.90167,-12.72307 1.08482,-3.55458 1.95123,-7.12524 2.60798,-10.69486 z m -84.92929,6.84862 c 0.72387,5.34044 1.89822,10.56391 3.50048,15.60449 4.70948,-3.19882 9.13291,-6.92809 13.18842,-11.13847 a 102.24054,101.24225 0 0 1 -16.6889,-4.46602 z m 96.54147,3.56692 c -0.40705,1.58209 -0.85034,3.16186 -1.33139,4.73817 -1.41149,4.62509 -3.09933,9.07352 -5.03602,13.33034 9.69105,2.86556 19.51576,3.64293 29.05036,2.5653 z m -54.35106,2.26544 a 102.24054,101.24225 0 0 1 -7.2691,0.2565 102.24054,101.24225 0 0 1 -1.35005,-0.009 c -7.01629,9.14074 -15.38273,16.83425 -24.64909,22.81846 6.03174,11.94485 14.67412,22.30729 25.41457,30.01219 14.14692,-6.01209 26.73049,-16.31434 36.01979,-29.9592 -10.92683,-5.76182 -20.41031,-13.68119 -28.16612,-23.11898 z M 11.808054,257.20227 a 179.83833,172.63409 0 0 0 37.006258,28.5913 c -3.353114,-3.68976 -6.423818,-7.64724 -9.192118,-11.829 -10.39602,-3.90087 -19.7335,-9.63506 -27.81414,-16.7623 z m 180.815516,13.33908 c -8.82747,13.90136 -20.56482,25.07166 -33.94986,32.78853 1.49614,0.62821 3.0192,1.21246 4.56896,1.74857 3.71464,1.28504 7.45621,2.25601 11.2005,2.92851 a 179.83833,172.63409 0 0 0 73.4472,-30.22326 l -5.96403,-5.42522 c -15.83471,4.09358 -32.78579,3.78357 -49.30277,-1.81713 z m -86.27998,0.97043 c -13.90003,6.32473 -29.188831,9.0945 -44.624882,7.59838 8.025491,7.84857 17.684714,14.00603 28.663791,17.80412 12.370741,4.27961 25.039301,5.08757 37.115191,2.91508 -8.65956,-7.9977 -15.79761,-17.62862 -21.1541,-28.31758 z" />
  </g>
</svg>
