<?xml version="1.0" encoding="UTF-8" standalone="no"?>
<svg
   xmlns:dc="http://purl.org/dc/elements/1.1/"
   xmlns:cc="http://creativecommons.org/ns#"
   xmlns:rdf="http://www.w3.org/1999/02/22-rdf-syntax-ns#"
   xmlns:svg="http://www.w3.org/2000/svg"
   xmlns="http://www.w3.org/2000/svg"
   xmlns:sodipodi="http://sodipodi.sourceforge.net/DTD/sodipodi-0.dtd"
   xmlns:inkscape="http://www.inkscape.org/namespaces/inkscape"
   width="210mm"
   height="297mm"
   viewBox="0 0 210 297"
   version="1.1"
   id="svg1089"
   inkscape:version="1.0.2-2 (e86c870879, 2021-01-15)"
   sodipodi:docname="c_logo.svg">
  <defs
     id="defs1083" />
  <sodipodi:namedview
     id="base"
     pagecolor="#ffffff"
     bordercolor="#666666"
     borderopacity="1.0"
     inkscape:pageopacity="0.0"
     inkscape:pageshadow="2"
     inkscape:zoom="0.7"
     inkscape:cx="175.85569"
     inkscape:cy="482.82204"
     inkscape:document-units="mm"
     inkscape:current-layer="layer1"
     inkscape:document-rotation="0"
     showgrid="false"
     inkscape:window-width="1431"
     inkscape:window-height="1019"
     inkscape:window-x="128"
     inkscape:window-y="0"
     inkscape:window-maximized="0" />
  <metadata
     id="metadata1086">
    <rdf:RDF>
      <cc:Work
         rdf:about="">
        <dc:format>image/svg+xml</dc:format>
        <dc:type
           rdf:resource="http://purl.org/dc/dcmitype/StillImage" />
        <dc:title></dc:title>
      </cc:Work>
    </rdf:RDF>
  </metadata>
  <g
     inkscape:label="Layer 1"
     inkscape:groupmode="layer"
     id="layer1">
    <path
       id="path1481-8"
       style="fill:#a7a9ae;fill-opacity:1;stroke:none;stroke-width:3.37657;stroke-linejoin:round;stroke-miterlimit:4;stroke-dasharray:none;stroke-opacity:1"
       d="m 99.986513,36.763886 a 66.606787,63.938553 0 0 0 -14.763872,2.06592 c 2.133152,0.203397 4.274066,0.626071 6.398833,1.28287 2.642341,-1.491011 5.453975,-2.620565 8.365039,-3.34879 z m 24.131457,3.543221 c 2.60876,1.537257 4.97667,3.414945 7.07162,5.565032 2.29778,0.251571 4.60252,0.759205 6.88458,1.539768 l 0.35527,-0.366236 a 66.606787,63.938553 0 0 0 -14.31147,-6.738564 z m -16.26338,0.829695 c -3.35879,-0.01839 -6.66414,0.59081 -9.787112,1.755444 4.071972,2.300517 7.575262,5.422725 10.394592,9.113218 4.44715,-3.177126 9.52466,-5.254932 14.83564,-6.006666 -2.03478,-1.387054 -4.2632,-2.521164 -6.66195,-3.350982 -2.91062,-1.006899 -5.86594,-1.495041 -8.78117,-1.511014 z m -25.5312,2.884409 C 72.051272,43.965135 62.277064,49.773833 56.703091,59.417267 63.027826,56.519119 69.867494,55.677449 76.379909,56.770129 78.695986,51.827437 81.92553,47.598512 85.759501,44.260207 84.611378,44.106513 83.46433,44.027465 82.32339,44.021211 Z m 9.819765,1.893532 c -4.381506,2.900424 -8.117023,7.026148 -10.723682,12.112046 4.459925,1.489751 8.643201,3.938641 12.249142,7.301885 a 37.866868,37.49713 0 0 1 3.753283,-0.745408 c 1.922182,-3.541447 4.330592,-6.669625 7.095992,-9.310531 -3.19161,-4.131377 -7.392803,-7.411935 -12.374735,-9.357992 z m 35.707245,5.104578 c -5.90819,-0.03226 -11.65149,1.876062 -16.52592,5.337804 1.71281,3.04628 3.01991,6.356527 3.87391,9.824795 a 37.866868,37.49713 0 0 1 3.38351,1.324784 L 131.40531,54.28694 c -0.7489,-1.134894 -1.56784,-2.217544 -2.45329,-3.239103 -0.36777,-0.01705 -0.73499,-0.02651 -1.10162,-0.02852 z m -20.47293,8.674701 c -1.35825,1.357397 -2.61035,2.857797 -3.73515,4.488484 a 37.866868,37.49713 0 0 1 5.91956,0.564829 c -0.59178,-1.753554 -1.32281,-3.444777 -2.18441,-5.053313 z m -56.761717,0.468997 a 66.606787,63.938553 0 0 0 -5.947219,8.206283 c 1.333263,-1.499227 2.796715,-2.90357 4.388207,-4.192683 0.454025,-1.383351 0.975844,-2.721973 1.559012,-4.0136 z m 20.264134,1.458366 c -6.027071,-6.82e-4 -12.159922,1.905863 -17.552036,5.857725 -1.857352,6.657552 -1.672676,13.432129 0.17185,19.518186 5.397203,-5.064208 12.120797,-8.290563 19.229284,-9.14127 -0.488413,-5.147442 -0.0018,-10.498221 1.599594,-15.745551 0.02742,-0.08987 0.05577,-0.179173 0.08377,-0.268678 -1.169094,-0.146144 -2.348784,-0.220311 -3.532467,-0.220412 z m 8.490862,1.29696 c -0.09275,0.278994 -0.182652,0.559946 -0.269111,0.843196 -1.029036,3.371875 -1.527743,6.782554 -1.547226,10.126835 A 37.866868,37.49713 0 0 1 87.896866,67.28063 C 85.280359,65.327425 82.39715,63.865848 79.370749,62.918345 Z M 47.16876,73.388668 c -7.498808,9.383848 -9.404628,22.400001 -4.856716,33.410972 0.21773,-0.95558 0.47089,-1.90967 0.761088,-2.86028 C 44.534796,99.149691 46.795366,94.871542 49.6402,91.227155 47.529597,85.69505 46.630527,79.582904 47.16876,73.388668 Z m 22.513385,10.432914 c -5.280171,1.349088 -10.174422,4.249137 -14.112637,8.388706 2.256617,4.525495 5.521535,8.445402 9.59293,11.338122 a 37.866868,37.49713 0 0 1 -0.04738,-1.87437 37.866868,37.49713 0 0 1 4.567089,-17.852458 z M 52.1275,96.514273 c -1.804037,2.696839 -3.263038,5.739647 -4.28131,9.076387 -0.837781,2.74532 -1.32389,5.51631 -1.486463,8.25639 3.22343,4.22401 7.320656,7.3221 11.838215,9.21978 0.294374,-1.94853 0.732933,-3.89836 1.323686,-5.83405 0.944562,-3.0951 2.222769,-5.97667 3.77664,-8.61165 -4.627166,-3.06966 -8.416035,-7.24916 -11.170768,-12.106857 z m -16.574772,5.128017 a 66.606787,63.938553 0 0 0 11.661037,35.17761 c -3.851261,-6.1714 -5.97037,-13.56882 -5.920922,-21.22942 -2.915519,-4.2918 -4.810731,-9.04688 -5.740115,-13.94819 z m 31.258396,11.12822 c -1.006786,1.90471 -1.854677,3.94705 -2.515984,6.11392 -0.580592,1.9024 -0.992097,3.81699 -1.244452,5.72529 3.346231,0.74069 6.822203,0.87371 10.269801,0.37374 a 37.866868,37.49713 0 0 1 -6.509365,-12.21295 z m -19.986629,9.18664 c 1.528709,8.6704 6.311126,16.3755 13.37195,21.0575 -1.666291,-4.53281 -2.523918,-9.44188 -2.451256,-14.45772 -3.948819,-1.44788 -7.660618,-3.65806 -10.920694,-6.59978 z m 30.803714,7.5686 c -4.927199,1.2686 -10.004047,1.39643 -14.873154,0.43482 0.126293,5.9296 1.757879,11.61685 4.613902,16.46844 6.647579,2.07475 13.485404,1.48078 19.513356,-1.23449 -1.157172,-3.3831 -1.867836,-6.9627 -2.08454,-10.62977 a 37.866868,37.49713 0 0 1 -7.169564,-5.039 z m 43.875151,4.8538 a 37.866868,37.49713 0 0 1 -9.69008,3.75751 c 2.03723,1.95583 4.35177,3.62074 6.90873,4.9158 0.70438,-1.4953 1.31363,-3.06799 1.81543,-4.71225 0.40179,-1.31651 0.72268,-2.63898 0.96592,-3.96106 z m -31.455293,2.53653 c 0.268102,1.97794 0.70305,3.91256 1.296476,5.77944 1.744249,-1.18475 3.382557,-2.56596 4.884601,-4.12536 a 37.866868,37.49713 0 0 1 -6.181077,-1.65408 z m 35.756103,1.32108 c -0.15076,0.58596 -0.31494,1.17106 -0.49311,1.75488 -0.52277,1.71299 -1.1479,3.36056 -1.86519,4.93716 3.58928,1.06132 7.22806,1.34923 10.75939,0.95011 z m -20.13002,0.83905 a 37.866868,37.49713 0 0 1 -2.69226,0.095 37.866868,37.49713 0 0 1 -0.50002,-0.003 c -2.598625,3.38546 -5.697308,6.23491 -9.129297,8.45128 2.233982,4.42402 5.434866,8.26196 9.412807,11.11563 5.2396,-2.2267 9.90018,-6.04235 13.34066,-11.096 -4.04697,-2.13401 -7.55937,-5.06711 -10.43189,-8.56259 z M 53.902234,144.747 a 66.606787,63.938553 0 0 0 13.706021,10.58937 c -1.241894,-1.36658 -2.379192,-2.83231 -3.404488,-4.38111 -3.850378,-1.44477 -7.308704,-3.56854 -10.301533,-6.20826 z m 66.968706,4.9404 c -3.26943,5.14865 -7.6166,9.2858 -12.57402,12.1439 0.55413,0.23267 1.11822,0.44906 1.69221,0.64762 1.37579,0.47594 2.76156,0.83556 4.14833,1.08463 a 66.606787,63.938553 0 0 0 27.20267,-11.1938 l -2.2089,-2.00934 c -5.86471,1.51614 -12.14289,1.40132 -18.26029,-0.67301 z m -31.955548,0.35942 c -5.148156,2.34249 -10.810675,3.36833 -16.527731,2.81421 2.972404,2.90688 6.549894,5.18742 10.616219,6.59412 4.581752,1.58504 9.273814,1.88429 13.746372,1.07966 -3.207253,-2.96211 -5.850973,-6.52912 -7.83486,-10.48799 z" />
  </g>
</svg>
